<?xml version="1.0" standalone="no"?>
<!DOCTYPE svg PUBLIC "-//W3C//DTD SVG 20010904//EN"
 "http://www.w3.org/TR/2001/REC-SVG-20010904/DTD/svg10.dtd">
<svg version="1.0" xmlns="http://www.w3.org/2000/svg"
 width="367.000000pt" height="367.000000pt" viewBox="0 0 367.000000 367.000000"
 preserveAspectRatio="xMidYMid meet">
<metadata>
Created by potrace 1.11, written by Peter Selinger 2001-2013
</metadata>
<g transform="translate(0.000000,367.000000) scale(0.100000,-0.100000)"
fill="#000000" stroke="none">
<path d="M1739 3586 c-2 -3 -31 -6 -63 -7 l-58 -2 6 -46 c11 -87 15 -118 18
-131 2 -7 -8 -14 -22 -16 -14 -2 -47 -9 -75 -15 -27 -6 -61 -13 -75 -15 -42
-8 -194 -56 -204 -65 -22 -20 -21 -21 -89 133 -14 34 -20 33 -145 -33 -84 -44
-199 -118 -261 -167 l-24 -20 49 -58 c27 -33 52 -60 57 -62 14 -7 7 -31 -14
-46 -49 -34 -184 -174 -232 -240 -13 -18 -15 -17 -57 10 -24 16 -50 34 -59 39
-9 6 -20 16 -24 23 -13 21 -36 13 -52 -17 -8 -16 -20 -35 -28 -43 -22 -23
-108 -181 -150 -278 -6 -14 -12 -28 -14 -31 -2 -4 32 -19 75 -35 42 -15 81
-31 86 -36 6 -5 2 -28 -11 -60 -12 -29 -24 -64 -27 -78 -14 -54 -37 -167 -42
-200 -8 -59 -10 -60 -56 -53 -24 3 -63 6 -88 7 l-45 1 0 -195 0 -195 40 1 c22
0 62 3 89 5 45 4 49 2 53 -20 2 -13 10 -56 19 -95 8 -39 16 -80 18 -92 2 -11
6 -25 9 -31 3 -5 8 -20 10 -34 3 -13 13 -43 22 -67 10 -24 14 -47 9 -51 -5 -4
-42 -20 -81 -35 -40 -15 -75 -31 -77 -34 -5 -8 88 -196 135 -273 40 -64 74
-109 84 -109 4 0 32 19 63 43 83 62 82 62 99 37 38 -54 189 -210 231 -237 12
-9 22 -19 22 -23 0 -5 -25 -39 -55 -76 l-55 -67 30 -28 c16 -16 32 -29 34 -29
3 0 37 -22 78 -48 40 -27 89 -57 108 -66 122 -62 150 -76 158 -76 4 0 17 19
27 43 10 23 27 61 37 84 l19 43 52 -21 c61 -24 141 -48 179 -54 15 -2 31 -6
35 -8 5 -3 29 -8 53 -12 25 -4 52 -8 60 -10 17 -2 18 -41 6 -136 -6 -43 -5
-56 6 -57 7 -1 36 -3 63 -6 57 -6 267 -6 305 -1 14 2 31 4 38 4 10 1 12 17 8
64 -2 34 -5 62 -6 62 -6 0 -8 65 -2 66 7 1 26 4 82 14 19 4 46 9 60 11 47 7
210 59 282 89 12 5 18 0 23 -17 4 -13 20 -49 35 -80 15 -31 25 -59 22 -62 -10
-10 13 -6 61 10 26 9 47 20 47 25 0 5 9 9 20 9 11 0 20 5 20 10 0 6 5 10 11
10 13 0 141 79 183 113 l29 24 -34 44 c-19 24 -40 50 -47 57 -34 37 -35 53 -6
76 52 39 230 221 249 253 15 26 24 32 40 27 11 -4 22 -10 25 -14 3 -3 33 -25
67 -48 l62 -42 18 30 c9 17 21 30 25 30 4 0 8 4 8 9 0 4 21 46 48 92 26 46 56
102 66 124 10 22 23 48 27 57 15 29 11 36 -28 49 -21 7 -54 19 -73 27 -19 9
-37 16 -40 17 -26 4 -26 20 -1 97 39 117 66 243 70 321 1 15 10 16 101 11 l99
-6 -2 174 c-1 113 -6 172 -12 171 -6 -1 -47 -5 -90 -8 -44 -4 -83 -9 -87 -12
-5 -2 -8 8 -9 24 0 15 -3 37 -5 48 -2 11 -6 36 -9 56 -3 29 -33 148 -49 194
-2 6 -7 25 -11 43 -4 18 -12 35 -16 38 -18 11 -8 25 29 40 20 8 46 19 57 23
11 5 35 14 52 21 44 17 43 21 -65 225 -15 28 -29 52 -32 55 -11 11 -50 70 -50
75 0 4 -6 12 -13 19 -11 11 -26 4 -87 -40 -41 -30 -79 -54 -85 -54 -6 0 -19
14 -29 31 -21 36 -168 186 -235 241 l-45 36 57 76 c31 41 57 78 57 80 0 6
-111 83 -150 105 -80 44 -192 101 -200 101 -5 0 -17 -19 -28 -42 -10 -24 -27
-62 -37 -86 -14 -31 -23 -41 -35 -36 -117 46 -334 104 -394 104 -22 0 -41 23
-32 39 2 3 7 41 11 83 l6 76 -38 4 c-53 7 -268 10 -274 4z m241 -460 c30 -3
66 -8 80 -11 14 -3 36 -8 50 -10 182 -30 434 -155 589 -291 66 -57 171 -168
171 -181 1 -4 14 -24 30 -43 17 -19 30 -40 30 -47 0 -7 4 -13 9 -13 4 0 32
-48 62 -107 61 -125 63 -129 85 -208 40 -137 48 -201 49 -365 0 -146 -7 -215
-31 -300 -8 -30 -17 -62 -19 -70 -2 -8 -4 -15 -5 -15 -1 0 -3 -9 -5 -20 -2
-10 -8 -28 -13 -40 -108 -245 -228 -413 -387 -540 -32 -26 -65 -54 -73 -61 -7
-8 -19 -14 -26 -14 -8 0 -19 -7 -27 -16 -13 -16 -103 -65 -115 -63 -4 0 -10
-3 -13 -8 -3 -5 -26 -17 -51 -27 -25 -10 -59 -25 -75 -32 -31 -13 -78 -26
-212 -57 -39 -10 -156 -20 -228 -21 -63 -1 -120 4 -227 20 -126 18 -392 114
-406 147 -2 4 -8 7 -14 7 -6 0 -48 25 -94 56 -94 63 -243 205 -294 279 -18 28
-37 52 -42 53 -4 2 -8 10 -8 18 0 8 -3 14 -7 14 -5 0 -13 10 -19 23 -6 12 -25
47 -41 78 -74 138 -120 290 -140 464 -3 28 -5 56 -4 63 1 6 1 24 1 40 0 132 5
187 25 294 23 120 158 428 188 428 4 0 7 5 7 11 0 11 11 26 68 99 59 75 172
176 298 267 46 34 205 109 279 133 39 12 77 24 85 27 21 8 28 10 80 18 24 4
48 9 52 11 4 3 45 8 90 11 46 3 84 6 85 7 3 2 96 -3 163 -8z"/>
<path d="M2095 2772 l-70 -3 -39 -70 c-22 -38 -41 -82 -42 -97 -1 -15 -7 -70
-13 -122 -6 -52 -13 -122 -16 -155 -3 -33 -8 -71 -10 -85 -3 -14 -7 -56 -10
-95 -4 -38 -8 -81 -10 -95 -2 -14 -7 -52 -10 -85 -4 -33 -8 -76 -10 -95 -2
-19 -7 -64 -11 -100 -3 -36 -8 -68 -10 -72 -3 -4 -61 -7 -130 -6 -68 0 -126
-1 -128 -3 -7 -8 -96 -176 -96 -181 0 -3 74 -5 165 -4 l164 1 -5 -45 c-3 -25
-9 -69 -14 -99 -6 -30 -10 -56 -10 -58 0 -1 -21 -14 -47 -27 -58 -29 -83 -57
-90 -100 -4 -24 0 -36 17 -51 20 -18 37 -19 338 -19 174 1 333 3 352 6 45 6
84 31 98 64 19 41 14 60 -23 91 -24 20 -35 37 -36 58 -2 28 8 150 16 205 2 14
6 54 10 90 3 36 8 81 10 100 11 92 16 139 20 190 6 75 14 148 20 190 3 19 7
60 10 90 5 54 12 122 20 190 2 19 7 68 10 108 4 41 8 82 10 92 2 10 7 54 10
97 4 43 9 81 12 86 2 4 -35 7 -84 8 -48 0 -135 1 -193 2 -58 1 -136 1 -175 -1z"/>
<path d="M1807 2378 c-68 -107 -269 -423 -282 -445 -65 -106 -324 -508 -348
-539 -37 -48 -81 -81 -157 -114 -30 -14 -63 -32 -72 -40 -22 -20 -40 -68 -33
-90 12 -38 49 -45 244 -44 209 0 239 6 271 59 32 52 27 80 -21 112 -84 56 -82
64 98 348 7 11 22 38 34 60 12 22 24 42 28 45 3 3 12 16 20 30 8 14 51 84 95
155 43 72 101 166 127 210 l48 80 4 128 c2 70 2 127 0 127 -2 0 -27 -37 -56
-82z"/>
</g>
</svg>
